<mxfile host="app.diagrams.net" modified="2024-05-15T11:46:22.811Z" agent="Mozilla/5.0 (Windows NT 10.0; Win64; x64) AppleWebKit/537.36 (KHTML, like Gecko) Chrome/124.0.0.0 Safari/537.36" etag="jRja3fwCDO7ulKiyOWBC" version="24.4.0" type="google">
  <diagram name="Página-1" id="zQSI6N821vG_62Cs4y48">
    <mxGraphModel grid="0" page="0" gridSize="10" guides="1" tooltips="1" connect="1" arrows="1" fold="1" pageScale="1" pageWidth="827" pageHeight="1169" math="0" shadow="0">
      <root>
        <mxCell id="0" />
        <mxCell id="1" parent="0" />
        <mxCell id="tDXs-ltS7u8jn5LWMT5O-3" value="&lt;span id=&quot;docs-internal-guid-cc81b968-7fff-6087-e29f-c4f47c887e09&quot;&gt;&lt;p style=&quot;text-align: left; line-height: 1.38; margin-top: 0pt; margin-bottom: 0pt;&quot; dir=&quot;ltr&quot;&gt;&lt;span style=&quot;font-size: 11pt; font-family: Arial, sans-serif; background-color: transparent; font-variant-numeric: normal; font-variant-east-asian: normal; font-variant-alternates: normal; font-variant-position: normal; vertical-align: baseline; white-space-collapse: preserve;&quot;&gt;1. Menú Principal:&lt;/span&gt;&lt;/p&gt;&lt;p style=&quot;text-align: left; line-height: 1.38; margin-top: 0pt; margin-bottom: 0pt;&quot; dir=&quot;ltr&quot;&gt;&lt;span style=&quot;font-size: 11pt; font-family: Arial, sans-serif; background-color: transparent; font-variant-numeric: normal; font-variant-east-asian: normal; font-variant-alternates: normal; font-variant-position: normal; vertical-align: baseline; white-space-collapse: preserve;&quot;&gt;&amp;nbsp;&amp;nbsp;&amp;nbsp;2. Explorar Funciones&lt;/span&gt;&lt;/p&gt;&lt;p style=&quot;text-align: left; line-height: 1.38; margin-top: 0pt; margin-bottom: 0pt;&quot; dir=&quot;ltr&quot;&gt;&lt;span style=&quot;font-size: 11pt; font-family: Arial, sans-serif; background-color: transparent; font-variant-numeric: normal; font-variant-east-asian: normal; font-variant-alternates: normal; font-variant-position: normal; vertical-align: baseline; white-space-collapse: preserve;&quot;&gt;   3. Consultar Obras&lt;/span&gt;&lt;/p&gt;&lt;p style=&quot;text-align: left; line-height: 1.38; margin-top: 0pt; margin-bottom: 0pt;&quot; dir=&quot;ltr&quot;&gt;&lt;span style=&quot;font-size: 11pt; font-family: Arial, sans-serif; background-color: transparent; font-variant-numeric: normal; font-variant-east-asian: normal; font-variant-alternates: normal; font-variant-position: normal; vertical-align: baseline; white-space-collapse: preserve;&quot;&gt;&amp;nbsp;&amp;nbsp;&amp;nbsp;- Consultar Calendario&lt;/span&gt;&lt;/p&gt;&lt;p style=&quot;text-align: left; line-height: 1.38; margin-top: 0pt; margin-bottom: 0pt;&quot; dir=&quot;ltr&quot;&gt;&lt;span style=&quot;font-size: 11pt; font-family: Arial, sans-serif; background-color: transparent; font-variant-numeric: normal; font-variant-east-asian: normal; font-variant-alternates: normal; font-variant-position: normal; vertical-align: baseline; white-space-collapse: preserve;&quot;&gt;   - Realizar Reseña&lt;/span&gt;&lt;/p&gt;&lt;p style=&quot;text-align: left; line-height: 1.38; margin-top: 0pt; margin-bottom: 0pt;&quot; dir=&quot;ltr&quot;&gt;&lt;span style=&quot;font-size: 11pt; font-family: Arial, sans-serif; background-color: transparent; font-variant-numeric: normal; font-variant-east-asian: normal; font-variant-alternates: normal; font-variant-position: normal; vertical-align: baseline; white-space-collapse: preserve;&quot;&gt;&amp;nbsp;&amp;nbsp;&amp;nbsp;4. Gestionar Usuario&lt;/span&gt;&lt;/p&gt;&lt;p style=&quot;text-align: left; line-height: 1.38; margin-top: 0pt; margin-bottom: 0pt;&quot; dir=&quot;ltr&quot;&gt;&lt;span style=&quot;font-size: 11pt; font-family: Arial, sans-serif; background-color: transparent; font-variant-numeric: normal; font-variant-east-asian: normal; font-variant-alternates: normal; font-variant-position: normal; vertical-align: baseline; white-space-collapse: preserve;&quot;&gt;&amp;nbsp;&amp;nbsp;&amp;nbsp;5. Administrar Perfil Usuario&lt;/span&gt;&lt;/p&gt;&lt;p style=&quot;text-align: left; line-height: 1.38; margin-top: 0pt; margin-bottom: 0pt;&quot; dir=&quot;ltr&quot;&gt;&lt;span style=&quot;font-size: 11pt; font-family: Arial, sans-serif; background-color: transparent; font-variant-numeric: normal; font-variant-east-asian: normal; font-variant-alternates: normal; font-variant-position: normal; vertical-align: baseline; white-space-collapse: preserve;&quot;&gt;&amp;nbsp;&amp;nbsp;&amp;nbsp;6. Salir&lt;/span&gt;&lt;/p&gt;&lt;div style=&quot;text-align: left;&quot;&gt;&lt;span style=&quot;font-size: 11pt; font-family: Arial, sans-serif; background-color: transparent; font-variant-numeric: normal; font-variant-east-asian: normal; font-variant-alternates: normal; font-variant-position: normal; vertical-align: baseline; white-space-collapse: preserve;&quot;&gt;&lt;br&gt;&lt;/span&gt;&lt;/div&gt;&lt;/span&gt;" style="rounded=0;whiteSpace=wrap;html=1;" vertex="1" parent="1">
          <mxGeometry x="-327" y="-562" width="230" height="269" as="geometry" />
        </mxCell>
        <mxCell id="tDXs-ltS7u8jn5LWMT5O-6" value="&lt;div&gt;&lt;span style=&quot;font-size: 14.6667px; white-space-collapse: preserve;&quot; id=&quot;docs-internal-guid-cc81b968-7fff-6087-e29f-c4f47c887e09&quot;&gt;&lt;p style=&quot;text-align: left; line-height: 1.38; margin-top: 0pt; margin-bottom: 0pt;&quot; dir=&quot;ltr&quot;&gt;&lt;font face=&quot;Arial, sans-serif&quot;&gt;2. Menú Explorar Funciones:&lt;/font&gt;&lt;/p&gt;&lt;p style=&quot;text-align: left; line-height: 1.38; margin-top: 0pt; margin-bottom: 0pt;&quot; dir=&quot;ltr&quot;&gt;&lt;font face=&quot;Arial, sans-serif&quot;&gt;-Consultar Espectáculos&lt;/font&gt;&lt;/p&gt;&lt;p style=&quot;text-align: left; line-height: 1.38; margin-top: 0pt; margin-bottom: 0pt;&quot; dir=&quot;ltr&quot;&gt;&lt;font face=&quot;Arial, sans-serif&quot;&gt;-buscar&lt;/font&gt;&lt;/p&gt;&lt;p style=&quot;text-align: left; line-height: 1.38; margin-top: 0pt; margin-bottom: 0pt;&quot; dir=&quot;ltr&quot;&gt;&lt;font face=&quot;Arial, sans-serif&quot;&gt;-Favoritos&lt;/font&gt;&lt;/p&gt;&lt;p style=&quot;text-align: left; line-height: 1.38; margin-top: 0pt; margin-bottom: 0pt;&quot; dir=&quot;ltr&quot;&gt;&lt;font face=&quot;Arial, sans-serif&quot;&gt;-Compra de Entradas&lt;/font&gt;&lt;/p&gt;&lt;p style=&quot;text-align: left; line-height: 1.38; margin-top: 0pt; margin-bottom: 0pt;&quot; dir=&quot;ltr&quot;&gt;&lt;font face=&quot;Arial, sans-serif&quot;&gt;-Consulta de Calendario&lt;/font&gt;&lt;/p&gt;&lt;p style=&quot;text-align: left; line-height: 1.38; margin-top: 0pt; margin-bottom: 0pt;&quot; dir=&quot;ltr&quot;&gt;&lt;font face=&quot;Arial, sans-serif&quot;&gt;-Merch y Concesiones&lt;/font&gt;&lt;/p&gt;&lt;p style=&quot;text-align: left; line-height: 1.38; margin-top: 0pt; margin-bottom: 0pt;&quot; dir=&quot;ltr&quot;&gt;&lt;font face=&quot;Arial, sans-serif&quot;&gt;-Grupos Grandes&lt;/font&gt;&lt;/p&gt;&lt;p style=&quot;text-align: left; line-height: 1.38; margin-top: 0pt; margin-bottom: 0pt;&quot; dir=&quot;ltr&quot;&gt;&lt;font face=&quot;Arial, sans-serif&quot;&gt;-Volver al Menú Principal&lt;/font&gt;&lt;/p&gt;&lt;/span&gt;&lt;/div&gt;" style="rounded=0;whiteSpace=wrap;html=1;" vertex="1" parent="1">
          <mxGeometry x="49" y="-547" width="230" height="198" as="geometry" />
        </mxCell>
        <mxCell id="tDXs-ltS7u8jn5LWMT5O-7" value="&lt;span id=&quot;docs-internal-guid-cc81b968-7fff-6087-e29f-c4f47c887e09&quot;&gt;&lt;p style=&quot;text-align: left; line-height: 1.38; margin-top: 0pt; margin-bottom: 0pt;&quot; dir=&quot;ltr&quot;&gt;&lt;font face=&quot;Arial, sans-serif&quot;&gt;&lt;span style=&quot;font-size: 14.6667px; white-space-collapse: preserve;&quot;&gt;3. Menú Consultar Obras:&lt;/span&gt;&lt;/font&gt;&lt;/p&gt;&lt;p style=&quot;text-align: left; line-height: 1.38; margin-top: 0pt; margin-bottom: 0pt;&quot; dir=&quot;ltr&quot;&gt;&lt;font face=&quot;Arial, sans-serif&quot;&gt;&lt;span style=&quot;font-size: 14.6667px; white-space-collapse: preserve;&quot;&gt;-Ver Lista de Obras&lt;/span&gt;&lt;/font&gt;&lt;/p&gt;&lt;p style=&quot;text-align: left; line-height: 1.38; margin-top: 0pt; margin-bottom: 0pt;&quot; dir=&quot;ltr&quot;&gt;&lt;font face=&quot;Arial, sans-serif&quot;&gt;&lt;span style=&quot;font-size: 14.6667px; white-space-collapse: preserve;&quot;&gt;-Detalles de Obra&lt;/span&gt;&lt;/font&gt;&lt;/p&gt;&lt;p style=&quot;text-align: left; line-height: 1.38; margin-top: 0pt; margin-bottom: 0pt;&quot; dir=&quot;ltr&quot;&gt;&lt;font face=&quot;Arial, sans-serif&quot;&gt;&lt;span style=&quot;font-size: 14.6667px; white-space-collapse: preserve;&quot;&gt;-Volver al menú principal&lt;/span&gt;&lt;/font&gt;&lt;/p&gt;&lt;div style=&quot;text-align: left;&quot;&gt;&lt;span style=&quot;font-size: 11pt; font-family: Arial, sans-serif; background-color: transparent; font-variant-numeric: normal; font-variant-east-asian: normal; font-variant-alternates: normal; font-variant-position: normal; vertical-align: baseline; white-space-collapse: preserve;&quot;&gt;&lt;br&gt;&lt;/span&gt;&lt;/div&gt;&lt;/span&gt;" style="rounded=0;whiteSpace=wrap;html=1;" vertex="1" parent="1">
          <mxGeometry x="13" y="-261" width="230" height="133" as="geometry" />
        </mxCell>
        <mxCell id="tDXs-ltS7u8jn5LWMT5O-8" value="&lt;div&gt;&lt;span style=&quot;font-size: 14.6667px; white-space-collapse: preserve;&quot; id=&quot;docs-internal-guid-cc81b968-7fff-6087-e29f-c4f47c887e09&quot;&gt;&lt;p style=&quot;text-align: left; line-height: 1.38; margin-top: 0pt; margin-bottom: 0pt;&quot; dir=&quot;ltr&quot;&gt;&lt;font face=&quot;Arial, sans-serif&quot;&gt;4. Menú Gestionar Usuario:&lt;/font&gt;&lt;/p&gt;&lt;p style=&quot;text-align: left; line-height: 1.38; margin-top: 0pt; margin-bottom: 0pt;&quot; dir=&quot;ltr&quot;&gt;&lt;font face=&quot;Arial, sans-serif&quot;&gt;-Iniciar Sesión&lt;/font&gt;&lt;/p&gt;&lt;p style=&quot;text-align: left; line-height: 1.38; margin-top: 0pt; margin-bottom: 0pt;&quot; dir=&quot;ltr&quot;&gt;&lt;font face=&quot;Arial, sans-serif&quot;&gt;-Registrarse&lt;/font&gt;&lt;/p&gt;&lt;p style=&quot;text-align: left; line-height: 1.38; margin-top: 0pt; margin-bottom: 0pt;&quot; dir=&quot;ltr&quot;&gt;&lt;font face=&quot;Arial, sans-serif&quot;&gt;-Volver al Menú Principal&lt;/font&gt;&lt;/p&gt;&lt;/span&gt;&lt;/div&gt;" style="rounded=0;whiteSpace=wrap;html=1;" vertex="1" parent="1">
          <mxGeometry x="-329" y="-171" width="230" height="126" as="geometry" />
        </mxCell>
        <mxCell id="tDXs-ltS7u8jn5LWMT5O-12" value="&lt;span style=&quot;font-size: 14.6667px; white-space-collapse: preserve;&quot; id=&quot;docs-internal-guid-cc81b968-7fff-6087-e29f-c4f47c887e09&quot;&gt;&lt;p style=&quot;text-align: left; line-height: 1.38; margin-top: 0pt; margin-bottom: 0pt;&quot; dir=&quot;ltr&quot;&gt;&lt;font face=&quot;Arial, sans-serif&quot;&gt;5. Menú Administrar Perfil usuario:&lt;/font&gt;&lt;/p&gt;&lt;p style=&quot;text-align: left; line-height: 1.38; margin-top: 0pt; margin-bottom: 0pt;&quot; dir=&quot;ltr&quot;&gt;&lt;font face=&quot;Arial, sans-serif&quot;&gt;-Ver Perfil&lt;/font&gt;&lt;/p&gt;&lt;p style=&quot;text-align: left; line-height: 1.38; margin-top: 0pt; margin-bottom: 0pt;&quot; dir=&quot;ltr&quot;&gt;&lt;font face=&quot;Arial, sans-serif&quot;&gt;-Editar Perfil&lt;/font&gt;&lt;/p&gt;&lt;p style=&quot;text-align: left; line-height: 1.38; margin-top: 0pt; margin-bottom: 0pt;&quot; dir=&quot;ltr&quot;&gt;&lt;span style=&quot;font-family: Arial, sans-serif; font-size: 14.6667px;&quot;&gt;-Ver Historial/Transacciones&lt;/span&gt;&lt;font face=&quot;Arial, sans-serif&quot;&gt;&lt;br&gt;&lt;/font&gt;&lt;/p&gt;&lt;p style=&quot;text-align: left; line-height: 1.38; margin-top: 0pt; margin-bottom: 0pt;&quot; dir=&quot;ltr&quot;&gt;&lt;font face=&quot;Arial, sans-serif&quot;&gt;-Eliminar Cuenta&lt;/font&gt;&lt;/p&gt;&lt;p style=&quot;text-align: left; line-height: 1.38; margin-top: 0pt; margin-bottom: 0pt;&quot; dir=&quot;ltr&quot;&gt;&lt;font face=&quot;Arial, sans-serif&quot;&gt;-Volver al Menú Principal&lt;/font&gt;&lt;/p&gt;&lt;/span&gt;" style="rounded=0;whiteSpace=wrap;html=1;" vertex="1" parent="1">
          <mxGeometry x="-623" y="-191" width="260" height="146" as="geometry" />
        </mxCell>
        <mxCell id="tDXs-ltS7u8jn5LWMT5O-14" value="&lt;span style=&quot;font-size: 14.6667px; white-space-collapse: preserve;&quot; id=&quot;docs-internal-guid-cc81b968-7fff-6087-e29f-c4f47c887e09&quot;&gt;&lt;p style=&quot;text-align: left; line-height: 1.38; margin-top: 0pt; margin-bottom: 0pt;&quot; dir=&quot;ltr&quot;&gt;&lt;font face=&quot;Arial, sans-serif&quot;&gt;6. Menú Salir&lt;/font&gt;&lt;/p&gt;&lt;p style=&quot;text-align: left; line-height: 1.38; margin-top: 0pt; margin-bottom: 0pt;&quot; dir=&quot;ltr&quot;&gt;&lt;font face=&quot;Arial, sans-serif&quot;&gt;-Volver al Menú Principal&lt;/font&gt;&lt;/p&gt;&lt;/span&gt;" style="rounded=0;whiteSpace=wrap;html=1;" vertex="1" parent="1">
          <mxGeometry x="-701" y="-440" width="260" height="82" as="geometry" />
        </mxCell>
        <mxCell id="tDXs-ltS7u8jn5LWMT5O-17" value="" style="endArrow=classic;startArrow=classic;html=1;rounded=0;fontSize=12;startSize=8;endSize=8;curved=1;exitX=0;exitY=0.5;exitDx=0;exitDy=0;entryX=0.991;entryY=0.424;entryDx=0;entryDy=0;entryPerimeter=0;" edge="1" parent="1" source="tDXs-ltS7u8jn5LWMT5O-6" target="tDXs-ltS7u8jn5LWMT5O-3">
          <mxGeometry width="50" height="50" relative="1" as="geometry">
            <mxPoint x="118" y="-444" as="sourcePoint" />
            <mxPoint x="168" y="-494" as="targetPoint" />
          </mxGeometry>
        </mxCell>
        <mxCell id="tDXs-ltS7u8jn5LWMT5O-18" value="" style="endArrow=classic;startArrow=classic;html=1;rounded=0;fontSize=12;startSize=8;endSize=8;curved=1;exitX=0.5;exitY=0;exitDx=0;exitDy=0;entryX=0.5;entryY=1;entryDx=0;entryDy=0;" edge="1" parent="1" source="tDXs-ltS7u8jn5LWMT5O-8" target="tDXs-ltS7u8jn5LWMT5O-3">
          <mxGeometry width="50" height="50" relative="1" as="geometry">
            <mxPoint x="59" y="-438" as="sourcePoint" />
            <mxPoint x="-89" y="-438" as="targetPoint" />
          </mxGeometry>
        </mxCell>
        <mxCell id="tDXs-ltS7u8jn5LWMT5O-19" value="" style="endArrow=classic;startArrow=classic;html=1;rounded=0;fontSize=12;startSize=8;endSize=8;curved=1;exitX=0.5;exitY=0;exitDx=0;exitDy=0;entryX=1.009;entryY=0.435;entryDx=0;entryDy=0;entryPerimeter=0;" edge="1" parent="1" source="tDXs-ltS7u8jn5LWMT5O-7" target="tDXs-ltS7u8jn5LWMT5O-3">
          <mxGeometry width="50" height="50" relative="1" as="geometry">
            <mxPoint x="-204" y="-161" as="sourcePoint" />
            <mxPoint x="-202" y="-283" as="targetPoint" />
          </mxGeometry>
        </mxCell>
        <mxCell id="tDXs-ltS7u8jn5LWMT5O-20" value="" style="endArrow=classic;startArrow=classic;html=1;rounded=0;fontSize=12;startSize=8;endSize=8;curved=1;exitX=0.5;exitY=0;exitDx=0;exitDy=0;entryX=0.5;entryY=1;entryDx=0;entryDy=0;" edge="1" parent="1" source="tDXs-ltS7u8jn5LWMT5O-12" target="tDXs-ltS7u8jn5LWMT5O-3">
          <mxGeometry width="50" height="50" relative="1" as="geometry">
            <mxPoint x="-204" y="-161" as="sourcePoint" />
            <mxPoint x="-202" y="-283" as="targetPoint" />
          </mxGeometry>
        </mxCell>
        <mxCell id="tDXs-ltS7u8jn5LWMT5O-21" value="" style="endArrow=classic;startArrow=classic;html=1;rounded=0;fontSize=12;startSize=8;endSize=8;curved=1;exitX=0.996;exitY=0.459;exitDx=0;exitDy=0;entryX=0;entryY=0.5;entryDx=0;entryDy=0;exitPerimeter=0;" edge="1" parent="1" source="tDXs-ltS7u8jn5LWMT5O-14" target="tDXs-ltS7u8jn5LWMT5O-3">
          <mxGeometry width="50" height="50" relative="1" as="geometry">
            <mxPoint x="-483" y="-181" as="sourcePoint" />
            <mxPoint x="-202" y="-283" as="targetPoint" />
          </mxGeometry>
        </mxCell>
      </root>
    </mxGraphModel>
  </diagram>
</mxfile>
